#!OML:ASF G:\JayActor3\Patient Classification 1\Patient 1\Session 5\male.ASF
:FULLY-SPECIFIED
:DEGREES
753
root 29.4028 16.3186 -3.84398 220.097 -85.313 -200.243
lowerback 31.1897 0.00942314 0.17644
upperback 7.10958 -0.764636 -1.11472
thorax -9.07064 -0.651027 -1.03165
lowerneck 3.75683 0.64794 1.64615
upperneck -17.5175 0.896558 0.985145
head -5.90669 0.105919 -0.00312708
rclavicle 1.6201e-014 2.45499e-014
rhumerus -26.9649 4.27522 -89.1876
rradius 38.8693
rwrist -4.22975
rhand -20.9047 -5.64599
rfingers 7.12502
rthumb 5.46632 -35.5555
lclavicle 1.6201e-014 2.45499e-014
lhumerus -28.9031 -8.65366 88.2021
lradius 36.0364
lwrist 24.7519
lhand -20.6297 10.275
lfingers 7.12502
lthumb 5.73183 40.1775
rfemur -59.1658 2.62884 20.7643
rtibia 29.6909
rfoot 11.4493 -18.9737
rtoes 14.0338
lfemur -33.7454 2.60957 -26.2929
ltibia 49.5369
lfoot -15.1977 6.26501
ltoes -20.8152
754
root 29.545 16.3251 -3.81343 218.955 -85.0342 -199.028
lowerback 31.2435 0.09234 0.120593
upperback 7.09626 -0.685039 -1.15457
thorax -9.10998 -0.6144 -1.07403
lowerneck 3.79541 0.671464 1.63357
upperneck -17.6214 0.919621 0.937307
head -5.94572 0.118767 -0.0175349
rclavicle -2.9271e-014 -2.22142e-014
rhumerus -26.9139 4.35911 -89.2007
rradius 38.9393
rwrist -4.25118
rhand -20.9276 -5.60035
rfingers 7.12502
rthumb 5.44429 -35.5104
lclavicle -2.9271e-014 -2.22142e-014
lhumerus -28.8878 -8.65202 88.1898
lradius 36.125
lwrist 24.8305
lhand -20.6604 10.2565
lfingers 7.12502
lthumb 5.70227 40.1597
rfemur -59.5802 2.35562 20.7097
rtibia 29.2404
rfoot 12.4927 -19.2534
rtoes 13.3916
lfemur -34.0334 2.91852 -26.5132
ltibia 49.0082
lfoot -15.4234 6.19481
ltoes -20.2226
755
root 29.6849 16.3283 -3.78232 217.969 -84.7427 -197.996
lowerback 31.3035 0.171665 0.0669716
upperback 7.09311 -0.611013 -1.19731
thorax -9.14079 -0.58091 -1.11896
lowerneck 3.83187 0.695955 1.62346
upperneck -17.6966 0.941669 0.870289
head -5.97524 0.133317 -0.0384256
rclavicle 8.49804e-015 3.57315e-014
rhumerus -26.8653 4.43895 -89.2143
rradius 39.008
rwrist -4.25065
rhand -20.9627 -5.60292
rfingers 7.12502
rthumb 5.41033 -35.5139
lclavicle 8.49804e-015 3.57315e-014
lhumerus -28.8793 -8.65641 88.177
lradius 36.1873
lwrist 24.8935
lhand -20.6906 10.2473
lfingers 7.12502
lthumb 5.67309 40.1513
rfemur -59.9626 2.1229 20.5881
rtibia 28.887
rfoot 13.143 -19.3471
rtoes 12.1075
lfemur -34.3103 3.21389 -26.7507
ltibia 48.5263
lfoot -15.6474 6.16699
ltoes -19.6214
756
root 29.8217 16.3272 -3.75088 217.087 -84.4455 -197.099
lowerback 31.3633 0.245144 0.0195789
upperback 7.10153 -0.543729 -1.24013
thorax -9.15833 -0.551134 -1.16515
lowerneck 3.86441 0.722043 1.61621
upperneck -17.7368 0.963354 0.781986
head -5.99289 0.150202 -0.0665671
rclavicle -1.51573e-014 -4.98453e-014
rhumerus -26.8225 4.51239 -89.228
rradius 39.0878
rwrist -4.25713
rhand -20.9784 -5.68576
rfingers 7.12502
rthumb 5.39525 -35.5971
lclavicle -1.51573e-014 -4.98453e-014
lhumerus -28.8768 -8.66446 88.165
lradius 36.2185
lwrist 24.9293
lhand -20.716 10.2328
lfingers 7.12502
lthumb 5.64854 40.1375
rfemur -60.3111 1.91955 20.425
rtibia 28.6765
rfoot 13.2912 -19.1815
rtoes 10.2434
lfemur -34.5809 3.4923 -27.0023
ltibia 48.1131
lfoot -15.88 6.19404
ltoes -18.9903
757
root 29.9551 16.3207 -3.71944 216.354 -84.1533 -196.379
lowerback 31.4167 0.308863 -0.0170971
upperback 7.12267 -0.486351 -1.28184
thorax -9.15841 -0.526543 -1.2126
lowerneck 3.88174 0.747811 1.61084
upperneck -17.7341 0.981997 0.67468
head -5.99425 0.168106 -0.100845
rclavicle 1.64991e-014 1.75427e-014
rhumerus -26.7854 4.5734 -89.2389
rradius 39.1599
rwrist -4.24971
rhand -21.0051 -5.76534
rfingers 7.12502
rthumb 5.36942 -35.6773
lclavicle 1.64991e-014 1.75427e-014
lhumerus -28.8769 -8.67458 88.1548
lradius 36.2195
lwrist 24.9267
lhand -20.7315 10.2247
lfingers 7.12502
lthumb 5.6336 40.1299
rfemur -60.6352 1.73622 20.2333
rtibia 28.6589
rfoot 12.8866 -18.7507
rtoes 8.06326
lfemur -34.8602 3.74652 -27.2693
ltibia 47.7901
lfoot -16.1251 6.28684
ltoes -18.3385
